# xmcd
#
# Track frame offsets:
#	150
#	11900
#	26983
#	40489
#	56480
#	74664
#	92281
#	114415
#	129690
#	145487
#	158471
#	175995
#	192375
#
# Disc length: 2886 seconds
#
# Revision: 1
# Processed by: cddbd v1.5.2PL0 Copyright (c) Steve Scherf et al.
# Submitted via: audiograbber 1.83.01
#
DISCID=bb0b440d
DTITLE=Fatoni and Dexter - Yo, Picasso
DYEAR=2015
DGENRE=Hip-Hop
TTITLE0=Benjamin Button
TTITLE1=Authitenzität
TTITLE2=32 Grad
TTITLE3=Semmelweisreflex
TTITLE4=Kann nicht reden ich esse (feat. Kryptik Joe)
TTITLE5=Ein schlechter Mensch
TTITLE6=Stalingrad
TTITLE7=Mike
TTITLE8=Kein Tag
TTITLE9=Dienstag Nacht
TTITLE10=ADHS
TTITLE11=Schauspielführer
TTITLE12=ICE Abteil
EXTD=
EXTT0=
EXTT1=
EXTT2=
EXTT3=
EXTT4=
EXTT5=
EXTT6=
EXTT7=
EXTT8=
EXTT9=
EXTT10=
EXTT11=
EXTT12=
PLAYORDER=
